# xmcd
#
# Track frame offsets: 
#        150
#        13689
#        25331
#        38259
#        48654
#        61305
#        72236
#        85161
#        96383
#        109467
#        121213
#        131707
#        144126
#        155443
#        167508
#        180158
#        191743
#        203605
#        214689
#        226141
#        242056
#        253143
#        266639
#        279817
#        293245
#        307352
#        319027
#        331972
#        344017
#
# Disc length: 4748 seconds
#
# Revision: 2
# Processed by: cddbd v1.5.2PL0 Copyright (c) Steve Scherf et al.
# Submitted via: ExactAudioCopyFreeDBPlugin 1.0
#
DISCID=a6128a1d
DTITLE=Various Artist - Sweet Soul Music:  411 Scorching Classics, 19
DTITLE=61-1975 [Bear Family]
DYEAR=2009
DGENRE=Soul
TTITLE0=Marvin Gaye - Ain't That Peculiar
TTITLE1=Joe Tex - A Sweet Woman Like You
TTITLE2=Slim Harpo - Baby Scratch My Back
TTITLE3=Edwin Starr - Stop Her on Sight (S.O.S.)
TTITLE4=The Elgins - Darling Baby
TTITLE5=Lee Dorsey - Get Out of My Life, Woman
TTITLE6=Stevie Wonder - Uptight (Everything's Alright)
TTITLE7=Boby Moore and The Rhythm Aces - Searching for My Love
TTITLE8=Wilson Pickett - 634-5789 (Soulsville U.S.A.)
TTITLE9=The Isley Brothers - This Old Heart of Mine (Is Weak for You)
TTITLE10=James Carr - You've Got My Mind Messed Up
TTITLE11=The Poets - She Blew a Good Thing
TTITLE12=Sam and Dave - Hold On, I'm Comin'
TTITLE13=The Capitols - Cool Jerk
TTITLE14=Percy Sledge - When a Man Loves a Woman
TTITLE15=Robert Parker - Barefootin'
TTITLE16=Jimmy Hughes - Neighbor, Neighbor
TTITLE17=Darrell Banks - Open the Door to Your Heart
TTITLE18=The Temptations - Ain't Too Proud to Beg
TTITLE19=Lorraine Ellison - Stay with Me
TTITLE20=Howard Tate - Ain't Nobody Home
TTITLE21=James and Bobby Purify - I'm Your Puppet
TTITLE22=Carla Thomas - B-A-B-Y
TTITLE23=Four Tops - Reach Out, I'll Be There
TTITLE24=Eddie Floyd - Knock on Wood
TTITLE25=The Artistics - I'm Gonna Miss You
TTITLE26=J.J. Jackson - But It's Alright
TTITLE27=Aaron Neville - Tell it Like it Is
TTITLE28=The Supremes - You Keep Me Hangin' On
EXTD=
EXTT0=
EXTT1=
EXTT2=
EXTT3=
EXTT4=
EXTT5=
EXTT6=
EXTT7=
EXTT8=
EXTT9=
EXTT10=
EXTT11=
EXTT12=
EXTT13=
EXTT14=
EXTT15=
EXTT16=
EXTT17=
EXTT18=
EXTT19=
EXTT20=
EXTT21=
EXTT22=
EXTT23=
EXTT24=
EXTT25=
EXTT26=
EXTT27=
EXTT28=
PLAYORDER=
